# xmcd
#
# Track frame offsets: 
#        150
#        19020
#        31540
#
# Disc length: 724 seconds
#
# Revision: 1
# Processed by: cddbd v1.5.2PL0 Copyright (c) Steve Scherf et al.
# Submitted via: ExactAudioCopy v0.99pb5
#
DISCID=1202d203
DTITLE=Tracy Chapman - Crossroads
DYEAR=1989
DGENRE=Folk/Rock
TTITLE0=Crossroads
TTITLE1=Born To Fight
TTITLE2=Mountains O' Things (Live)
EXTD=ID3G: 0
EXTT0=
EXTT1=
EXTT2=
PLAYORDER=
